#!OML:ASF F:\VICON\USERDATA\INSTALL\rory3\rory3.ASF
:FULLY-SPECIFIED
:DEGREES
16
root 0.704284 17.9737 -24.6702 -3.18104 1.20456 -3.04855
lowerback 9.59584 -1.63104 0.765124
upperback -0.0201869 -1.90304 3.33956
thorax -5.31905 -0.915404 3.32943
lowerneck -16.6319 -2.75695 -2.36523
upperneck 21.6119 -3.13761 -0.326398
head 9.62021 -1.69475 -0.130513
rclavicle -2.72087e-015 1.51076e-014
rhumerus -34.6979 -23.5622 -73.007
rradius 21.8024
rwrist 8.82751
rhand -17.3682 22.5193
rfingers 7.12502
rthumb 8.88008 -7.27387
lclavicle -2.72087e-015 1.51076e-014
lhumerus -28.4137 -0.627757 84.0226
lradius 30.9358
lwrist 8.29268
lhand -30.4836 19.6957
lfingers 7.12502
lthumb -3.78444 49.6419
rfemur -21.1518 2.90955 27.2228
rtibia 28.4552
rfoot -5.69472 -4.13318
rtoes 8.03439
lfemur 3.97784 -2.4674 -19.0008
ltibia 51.3423
lfoot 17.8832 -18.1396
ltoes 9.96832
17
root 0.693323 17.9994 -24.4864 -3.20355 1.12737 -3.34612
lowerback 9.64445 -1.42096 1.22076
upperback 0.270321 -1.58259 3.28605
thorax -5.07143 -0.772092 2.96486
lowerneck -17.8396 -2.92106 -2.13142
upperneck 21.898 -3.41956 -0.240854
head 9.94622 -1.79171 -0.198756
rclavicle 9.61621e-015 -1.03368e-014
rhumerus -34.0624 -23.6753 -73.4243
rradius 21.9129
rwrist 8.40602
rhand -17.5455 22.361
rfingers 7.12502
rthumb 8.70895 -7.43931
lclavicle 9.61621e-015 -1.03368e-014
lhumerus -27.8416 -1.53119 84.3468
lradius 30.6913
lwrist 7.80612
lhand -30.5173 22.4087
lfingers 7.12502
lthumb -3.81697 52.3543
rfemur -20.3659 3.03749 27.692
rtibia 28.2696
rfoot -5.81375 -4.15875
rtoes 7.67906
lfemur 2.4048 -2.01612 -18.4531
ltibia 53.8225
lfoot 20.3599 -18.8671
ltoes 3.86068
18
root 0.680129 18.0181 -24.3054 -3.24982 0.808101 -3.7727
lowerback 9.73826 -1.2669 1.72188
upperback 0.37602 -1.32007 3.32035
thorax -5.03483 -0.654125 2.68232
lowerneck -17.931 -2.97021 -2.05069
upperneck 21.7582 -3.5222 -0.182758
head 9.91368 -1.8248 -0.205884
rclavicle -6.88292e-015 4.45278e-014
rhumerus -33.5675 -24.002 -73.5334
rradius 21.6084
rwrist 8.7022
rhand -17.4074 22.5899
rfingers 7.12502
rthumb 8.84223 -7.20483
lclavicle -6.88292e-015 4.45278e-014
lhumerus -27.7135 -1.95417 84.537
lradius 30.2925
lwrist 7.24312
lhand -30.0789 24.5457
lfingers 7.12502
lthumb -3.39364 54.4984
rfemur -19.5815 3.31802 28.3314
rtibia 28.083
rfoot -6.05845 -4.17749
rtoes 8.14633
lfemur 1.04815 -1.35655 -17.7403
ltibia 56.1955
lfoot 18.847 -17.8469
ltoes 2.8262
19
root 0.666411 18.0334 -24.125 -3.28924 0.481557 -4.07694
lowerback 9.82424 -1.15152 2.05095
upperback 0.334822 -1.12275 3.3527
thorax -5.13874 -0.563753 2.50691
lowerneck -17.4709 -2.95373 -2.11907
upperneck 21.6006 -3.53072 -0.0199986
head 9.77668 -1.81708 -0.129996
rclavicle -1.39149e-015 9.54166e-015
rhumerus -33.3875 -24.2775 -73.4133
rradius 21.2373
rwrist 9.24412
rhand -16.859 23.5291
rfingers 7.12502
rthumb 9.37139 -6.24259
lclavicle -1.39149e-015 9.54166e-015
lhumerus -27.9456 -2.29842 84.657
lradius 29.9463
lwrist 6.99825
lhand -29.4598 23.872
lfingers 7.12502
lthumb -2.79579 53.8335
rfemur -18.8115 3.69619 28.8071
rtibia 27.917
rfoot -6.40763 -4.34959
rtoes 11.224
lfemur -0.267204 -0.664355 -17.1606
ltibia 58.3669
lfoot 15.8757 -16.4625
ltoes 0.416081
20
root 0.65606 18.0598 -23.9474 -3.30257 0.404452 -4.33029
lowerback 9.89125 -1.15583 2.21299
upperback 0.166736 -1.09134 3.51786
thorax -5.35418 -0.54988 2.59096
lowerneck -16.6108 -2.90212 -2.49611
upperneck 21.4822 -3.43142 0.200596
head 9.58603 -1.78026 0.0365061
rclavicle -8.00108e-015 2.14687e-014
rhumerus -33.3329 -23.7487 -73.3295
rradius 21.058
rwrist 9.47041
rhand -16.1542 24.6926
rfingers 7.12502
rthumb 10.0514 -5.04737
lclavicle -8.00108e-015 2.14687e-014
lhumerus -28.4325 -1.91788 84.8464
lradius 29.6
lwrist 6.24909
lhand -29.1953 22.5252
lfingers 7.12502
lthumb -2.54034 52.4898
rfemur -18.023 3.84975 29.2037
rtibia 27.701
rfoot -6.78625 -4.54652
rtoes 10.6569
lfemur -1.74939 -0.206083 -16.6794
ltibia 60.3133
lfoot 14.0452 -15.258
ltoes 1.88506
21
root 0.646148 18.0894 -23.7714 -3.40505 0.428746 -4.3962
lowerback 10.0203 -1.0639 2.34071
upperback 0.301233 -0.957737 3.44415
thorax -5.29232 -0.488049 2.42255
lowerneck -16.8845 -2.97632 -2.24843
upperneck 21.5727 -3.58294 0.148644
head 9.66441 -1.83476 -0.0474551
rclavicle 2.8861e-014 -1.74931e-014
rhumerus -32.8334 -23.6691 -73.7327
rradius 21.1516
rwrist 9.47285
rhand -16.0767 26.6909
rfingers 7.12502
rthumb 10.1262 -3.04541
lclavicle 2.8861e-014 -1.74931e-014
lhumerus -28.2897 -2.1373 84.9146
lradius 29.2695
lwrist 5.66396
lhand -28.696 21.915
lfingers 7.12502
lthumb -2.05809 51.8849
rfemur -17.1507 3.93087 29.3765
rtibia 27.5472
rfoot -7.20435 -4.71644
rtoes 9.18328
lfemur -3.10602 0.106105 -16.4634
ltibia 62.0473
lfoot 12.8028 -14.5292
ltoes 4.08311
22
root 0.638104 18.1121 -23.5973 -3.51279 0.310426 -4.44529
lowerback 10.0925 -0.671865 2.82306
upperback 0.890719 -0.425527 3.00005
thorax -4.73304 -0.23839 1.59932
lowerneck -18.9069 -3.34245 -1.31439
upperneck 21.9766 -4.29905 0.0416758
head 10.1674 -2.08767 -0.376615
rclavicle -1.70955e-014 -2.78299e-014
rhumerus -31.6399 -24.8576 -74.5643
rradius 21.3023
rwrist 9.55719
rhand -16.2388 27.5597
rfingers 7.12502
rthumb 9.9698 -2.18415
lclavicle -1.70955e-014 -2.78299e-014
lhumerus -26.9855 -3.25159 84.7326
lradius 28.7887
lwrist 5.03998
lhand -27.618 24.0043
lfingers 7.12502
lthumb -1.01697 53.9816
rfemur -16.3029 4.09219 29.5289
rtibia 27.3634
rfoot -7.42491 -4.78489
rtoes 9.49568
lfemur -4.343 0.550705 -16.294
ltibia 63.6159
lfoot 10.9986 -13.6306
ltoes 1.38726
23
root 0.629424 18.1257 -23.4267 -3.62542 0.000685536 -4.54901
lowerback 10.1754 -0.964226 2.4101
upperback 0.220508 -0.800188 3.55434
thorax -5.46785 -0.410839 2.48239
lowerneck -15.4606 -2.96651 -2.53752
upperneck 21.0583 -3.53928 0.19314
head 9.22692 -1.83909 0.048226
rclavicle 1.24365e-014 -1.27222e-014
rhumerus -32.2832 -22.5695 -74.0406
rradius 20.9953
rwrist 9.64836
rhand -16.4021 27.3366
rfingers 7.12502
rthumb 9.81227 -2.41477
lclavicle 1.24365e-014 -1.27222e-014
lhumerus -29.15 -1.07269 84.9459
lradius 28.7076
lwrist 3.99624
lhand -27.0328 25.6674
lfingers 7.12502
lthumb -0.451744 55.6467
rfemur -15.4961 4.31352 29.7807
rtibia 27.151
rfoot -7.70234 -4.77156
rtoes 9.92306
lfemur -5.49081 1.18753 -16.0252
ltibia 65.0337
lfoot 9.02694 -12.5352
ltoes -4.84904
24
root 0.623499 18.1422 -23.2583 -3.73175 -0.145643 -4.67222
lowerback 10.4426 -1.21122 2.0141
upperback -0.318192 -1.11144 4.05023
thorax -6.16332 -0.543424 3.29989
lowerneck -13.2242 -2.55986 -3.27485
upperneck 20.7311 -2.84015 0.0476099
head 8.70403 -1.59317 0.239348
rclavicle -2.6603e-014 2.46493e-014
rhumerus -32.712 -20.942 -73.5424
rradius 20.7609
rwrist 10.1655
rhand -15.9843 27.1276
rfingers 7.12502
rthumb 10.2153 -2.60437
lclavicle -2.6603e-014 2.46493e-014
lhumerus -30.8958 0.596677 85.1552
lradius 28.7171
lwrist 3.40328
lhand -26.4797 27.0607
lfingers 7.12502
lthumb 0.0824144 57.0405
rfemur -14.7058 4.49616 30.0138
rtibia 27.0417
rfoot -8.3713 -4.87972
rtoes 10.6707
lfemur -6.77064 1.53453 -15.8253
ltibia 66.287
lfoot 7.43318 -11.3688
ltoes -10.0053
25
root 0.616565 18.1634 -23.0867 -3.82866 -0.2827 -4.73534
lowerback 10.5547 -0.490601 2.8896
upperback 0.517119 -0.12204 3.28067
thorax -5.38642 -0.0915225 1.82482
lowerneck -16.6172 -3.20244 -1.84819
upperneck 21.7623 -3.98849 0.0347648
head 9.67417 -2.00327 -0.204065
rclavicle -6.83322e-015 -3.29983e-014
rhumerus -31.3672 -24.0902 -74.0941
rradius 20.8228
rwrist 10.9562
rhand -15.6201 25.6186
rfingers 7.12502
rthumb 10.5667 -4.09576
lclavicle -6.83322e-015 -3.29983e-014
lhumerus -28.8708 -2.11505 85.1687
lradius 28.3578
lwrist 3.82116
lhand -26.4389 28.4531
lfingers 7.12502
lthumb 0.121813 58.4328
rfemur -13.8622 4.66399 30.1821
rtibia 26.9849
rfoot -8.30409 -4.82614
rtoes 7.43989
lfemur -8.2253 1.86648 -15.7235
ltibia 67.3401
lfoot 6.34722 -10.2368
ltoes -8.85757
26
root 0.612852 18.1679 -22.9168 -3.90271 -0.49811 -4.79136
lowerback 10.5707 -0.647579 2.72512
upperback 0.27482 -0.323057 3.56172
thorax -5.64661 -0.184212 2.24843
lowerneck -15.1194 -2.8865 -2.40741
upperneck 21.3407 -3.43479 0.0343512
head 9.25472 -1.79889 -0.011577
rclavicle 1.40516e-014 1.43125e-014
rhumerus -31.3157 -22.0925 -74.3851
rradius 21.3853
rwrist 11.3895
rhand -15.4432 22.5305
rfingers 7.12502
rthumb 10.7373 -7.17507
lclavicle 1.40516e-014 1.43125e-014
lhumerus -29.9793 -0.532881 85.1362
lradius 28.286
lwrist 3.18516
lhand -27.2734 26.2251
lfingers 7.12502
lthumb -0.684128 56.2037
rfemur -13.1574 4.69797 30.3528
rtibia 26.9728
rfoot -8.52585 -4.6755
rtoes 7.63819
lfemur -9.31696 2.15963 -15.6416
ltibia 68.2409
lfoot 4.83697 -9.40275
ltoes -7.31463
